#!OML:ASF H:\Terrain\Patient Classification 1\Walking\steve\steve.ASF
:FULLY-SPECIFIED
:DEGREES
108
root 7.36722 15.7651 -16.6951 4.46291 -0.300985 0.272224
lowerback 1.44645 1.11185 2.342
upperback -2.30185 1.6237 2.41016
thorax -3.18358 0.784729 1.099
lowerneck -11.4817 -0.578577 -2.08714
upperneck 15.5682 -0.0735306 -1.88274
head 6.64012 -0.31604 -0.266627
rclavicle -2.53357e-014 -2.3059e-014
rhumerus -67.2406 -37.9183 -40.4245
rradius 14.4521
rwrist 29.7851
rhand -14.5608 -38.524
rfingers 7.12502
rthumb 11.5884 -68.1836
lclavicle -2.53357e-014 -2.3059e-014
lhumerus -26.5247 -8.73292 90.6038
lradius 50.6501
lwrist 28.6498
lhand -30.4314 -16.0114
lfingers 7.12502
lthumb -3.7341 13.9357
rfemur -31.6341 0.919766 25.36
rtibia 40.9994
rfoot -13.0511 6.83262
rtoes 7.63047
lfemur -8.44108 4.56812 -20.4158
ltibia 63.8223
lfoot 7.69958 7.01187
ltoes -6.86682
109
root 7.35988 15.8009 -16.4801 4.54392 -0.541506 0.105652
lowerback 1.28519 1.35372 2.53958
upperback -2.43126 1.94949 2.38663
thorax -3.22029 0.941348 0.953676
lowerneck -10.8876 -0.735079 -2.26075
upperneck 15.5652 -0.283995 -1.82498
head 6.53666 -0.419584 -0.23605
rclavicle 1.29955e-014 9.54166e-015
rhumerus -64.986 -38.0838 -43.0472
rradius 14.5989
rwrist 29.0567
rhand -13.945 -40.1475
rfingers 7.12502
rthumb 12.1822 -69.7727
lclavicle 1.29955e-014 9.54166e-015
lhumerus -27.7036 -9.37773 91.2145
lradius 48.837
lwrist 28.1838
lhand -29.5534 -16.0872
lfingers 7.12502
lthumb -2.88616 13.873
rfemur -30.5835 1.15128 25.5761
rtibia 40.5388
rfoot -13.4739 7.05656
rtoes 8.68422
lfemur -10.1963 5.08453 -20.1722
ltibia 65.1251
lfoot 5.83244 6.74208
ltoes -2.52046
110
root 7.35363 15.8401 -16.2636 4.48433 -0.75288 -0.270612
lowerback 1.19792 1.5027 2.94923
upperback -2.47565 2.15828 2.41819
thorax -3.2039 1.03551 0.751365
lowerneck -10.4267 -0.757878 -2.05776
upperneck 15.4673 -0.321425 -2.09667
head 6.42432 -0.444228 -0.357024
rclavicle -6.82701e-015 8.74653e-015
rhumerus -62.6804 -38.3971 -45.3433
rradius 14.6721
rwrist 28.649
rhand -12.2114 -42.1044
rfingers 7.12502
rthumb 13.8533 -71.623
lclavicle -6.82701e-015 8.74653e-015
lhumerus -28.5983 -9.49056 91.5958
lradius 46.817
lwrist 27.7653
lhand -28.3699 -15.9731
lfingers 7.12502
lthumb -1.7432 13.9996
rfemur -29.3107 1.50371 25.9976
rtibia 40.0178
rfoot -13.8882 7.23809
rtoes 10.6392
lfemur -11.7877 5.81651 -19.6393
ltibia 66.2006
lfoot 4.39252 6.07999
ltoes -1.81638
111
root 7.34792 15.88 -16.0507 4.34412 -1.06889 -0.528591
lowerback 1.22489 1.628 3.21666
upperback -2.36308 2.32875 2.39607
thorax -3.0905 1.1153 0.573998
lowerneck -10.3713 -0.665188 -2.12685
upperneck 15.556 -0.226641 -1.83442
head 6.44314 -0.381775 -0.253944
rclavicle 2.30777e-014 1.66979e-014
rhumerus -59.674 -38.5396 -48.3997
rradius 14.6666
rwrist 28.1625
rhand -14.4619 -41.6559
rfingers 7.12502
rthumb 11.6837 -71.3101
lclavicle 2.30777e-014 1.66979e-014
lhumerus -29.0796 -8.70854 91.7079
lradius 44.6391
lwrist 26.6519
lhand -26.8965 -15.9265
lfingers 7.12502
lthumb -0.320155 14.0531
rfemur -27.954 1.73131 26.3051
rtibia 39.4087
rfoot -14.5616 7.35237
rtoes 8.74771
lfemur -13.2813 6.56215 -19.2832
ltibia 67.0093
lfoot 3.17445 5.72223
ltoes -2.46008
112
root 7.34466 15.9182 -15.838 4.48693 -1.21848 -0.551347
lowerback 0.898835 1.67846 3.21296
upperback -2.25937 2.37413 2.374
thorax -2.79791 1.1419 0.563559
lowerneck -10.2984 -0.551132 -2.58501
upperneck 15.5896 -0.0912714 -1.2565
head 6.44183 -0.295908 0.0176
rclavicle 2.44117e-014 1.98785e-014
rhumerus -55.9313 -37.8745 -52.4369
rradius 14.8642
rwrist 26.6422
rhand -16.3772 -41.0389
rfingers 7.12502
rthumb 9.83627 -70.7891
lclavicle 2.44117e-014 1.98785e-014
lhumerus -29.6406 -7.45665 91.774
lradius 42.5764
lwrist 25.1169
lhand -25.7505 -15.7776
lfingers 7.12502
lthumb 0.786717 14.2007
rfemur -26.8877 1.75705 26.3276
rtibia 38.7497
rfoot -15.2281 7.43985
rtoes 7.76626
lfemur -15.1191 6.92156 -19.3109
ltibia 67.6199
lfoot 1.91319 5.5062
ltoes -2.41735
113
root 7.34009 15.9526 -15.6262 4.59317 -1.285 -0.6544
lowerback 0.643905 1.69699 3.26836
upperback -2.23199 2.386 2.39238
thorax -2.6245 1.14913 0.55984
lowerneck -10.2891 -0.404677 -2.48954
upperneck 15.7214 0.118402 -1.39535
head 6.48104 -0.201919 -0.0246525
rclavicle -2.21319e-014 2.38542e-015
rhumerus -52.8213 -37.6991 -55.3335
rradius 14.9809
rwrist 25.8812
rhand -15.8631 -40.5687
rfingers 7.12502
rthumb 10.3322 -70.2949
lclavicle -2.21319e-014 2.38542e-015
lhumerus -30.4823 -6.50045 91.8567
lradius 40.4962
lwrist 23.7915
lhand -25.8153 -15.764
lfingers 7.12502
lthumb 0.724137 14.2145
rfemur -25.808 1.80498 26.4318
rtibia 38.1438
rfoot -15.4741 7.66166
rtoes 9.74266
lfemur -16.9669 7.22 -19.2773
ltibia 68.1
lfoot 0.692907 4.93275
ltoes -5.60353
114
root 7.33473 15.9709 -15.4237 4.52865 -1.36529 -0.971334
lowerback 0.756229 1.7657 3.5772
upperback -2.33641 2.49453 2.39441
thorax -2.78209 1.1937 0.381766
lowerneck -10.5139 -0.359971 -1.81907
upperneck 16.3889 0.201641 -2.06765
head 6.73418 -0.187365 -0.345148
rclavicle 6.22755e-015 5.56597e-015
rhumerus -49.6528 -36.9051 -58.8036
rradius 15.1285
rwrist 24.0268
rhand -17.5236 -40.9168
rfingers 7.12502
rthumb 8.73007 -70.7163
lclavicle 6.22755e-015 5.56597e-015
lhumerus -31.3776 -6.01864 91.9362
lradius 38.1438
lwrist 22.802
lhand -26.1428 -15.8086
lfingers 7.12502
lthumb 0.407814 14.1708
rfemur -24.6239 1.83928 26.811
rtibia 37.6399
rfoot -15.8047 7.93244
rtoes 8.25851
lfemur -18.6404 7.57704 -18.9736
ltibia 68.4404
lfoot -1.21885 4.14525
ltoes -8.57861
